<?xml version="1.0" encoding="UTF-8"?>
<svg version="1.1" xmlns="http://www.w3.org/2000/svg" width="1024" height="1024">
<path d="M0 0 C337.92 0 675.84 0 1024 0 C1024 337.92 1024 675.84 1024 1024 C686.08 1024 348.16 1024 0 1024 C0 686.08 0 348.16 0 0 Z " fill="#C7C7C7" transform="translate(0,0)"/>
<path d="M0 0 C1.66942406 -0.01073296 1.66942406 -0.01073296 3.37257385 -0.02168274 C5.18987251 -0.02571609 5.18987251 -0.02571609 7.04388428 -0.02983093 C8.96913185 -0.03968773 8.96913185 -0.03968773 10.93327332 -0.04974365 C15.18074305 -0.07071382 19.42821286 -0.08113894 23.67572021 -0.09111023 C25.14189421 -0.09516032 26.60806802 -0.09927732 28.07424164 -0.10346031 C34.96361546 -0.12249595 41.85297867 -0.13673078 48.7423737 -0.14507228 C56.67805055 -0.15484108 64.61344821 -0.18115788 72.54902673 -0.22157317 C78.69444261 -0.25179066 84.8397787 -0.26654644 90.9852674 -0.26985329 C94.65040234 -0.27219719 98.31523846 -0.28107101 101.98029327 -0.30631447 C106.07328203 -0.33405184 110.16565108 -0.32974693 114.25872803 -0.32279968 C116.0638813 -0.34201477 116.0638813 -0.34201477 117.90550232 -0.36161804 C126.04179767 -0.31136408 132.43076717 0.89834764 138.83587646 6.12763977 C144.38849725 12.62294151 149.29710973 19.48014863 154.15618896 26.49873352 C157.55676417 31.39481146 161.10249156 36.17709969 164.66009521 40.95967102 C179.41009521 60.86663348 179.41009521 60.86663348 179.41009521 64.14717102 C180.07023621 64.13464294 180.7303772 64.12211487 181.41052246 64.10920715 C218.13015577 63.4213136 254.85394531 62.98700637 291.57989502 62.86006165 C295.65772543 62.84530367 299.73532406 62.82096992 303.81304932 62.7882843 C308.67776414 62.74985562 313.54216491 62.73173215 318.40702629 62.72821999 C320.19854734 62.72375632 321.99006761 62.71257786 323.78149605 62.69382286 C344.73976479 62.4854926 362.68021254 66.87031393 378.24212646 81.82295227 C390.10823959 94.54428075 396.29686447 110.29702947 399.41009521 127.14717102 C399.67596436 128.513255 399.67596436 128.513255 399.94720459 129.90693665 C400.46871379 133.55750103 400.52250178 137.04552955 400.50775146 140.73310852 C400.50633652 141.43489227 400.50492157 142.13667603 400.50346375 142.85972595 C400.49790811 145.08058606 400.48536414 147.30134186 400.47259521 149.52217102 C400.46757447 151.03649247 400.46301257 152.55081552 400.45892334 154.06513977 C400.44795328 157.75918354 400.4307197 161.45316708 400.41009521 165.14717102 C397.84179472 166.43132127 395.99724827 166.28642707 393.12039185 166.3053894 C391.99856003 166.31517822 390.87672821 166.32496704 389.72090149 166.33505249 C388.48444382 166.34080795 387.24798615 166.34656342 385.97406006 166.35249329 C384.67654312 166.36239288 383.37902618 166.37229248 382.04219055 166.38249207 C378.47839287 166.40957081 374.91458191 166.43056426 371.35073805 166.45049405 C367.62844378 166.47233532 363.90619059 166.49973309 360.18392944 166.52655029 C353.13269942 166.57650237 346.08144662 166.62143185 339.03017199 166.66457266 C331.00364908 166.71392357 322.97716738 166.76884964 314.95068431 166.82425225 C298.43719259 166.93811089 281.92366311 167.04494146 265.41009521 167.14717102 C265.70214562 168.56762594 266.00081557 169.98672068 266.30218506 171.40522766 C266.46777924 172.19562943 266.63337341 172.98603119 266.8039856 173.80038452 C267.71721925 177.33631986 269.29890746 180.39107362 271.03509521 183.58467102 C274.41009521 189.92618888 274.41009521 189.92618888 274.41009521 192.14717102 C275.04123891 192.14440564 275.6723826 192.14164026 276.32265186 192.13879108 C291.67051011 192.07257573 307.01831877 192.0229122 322.36628437 191.9917345 C329.78841082 191.97625696 337.21044201 191.95515061 344.63250732 191.92085266 C351.1005976 191.89097732 357.56861889 191.87160247 364.03677624 191.86490554 C367.46253986 191.86099007 370.8881061 191.85177009 374.31380653 191.82998085 C378.13541017 191.80586999 381.95681963 191.80519983 385.77850342 191.80659485 C386.91785843 191.79580902 388.05721344 191.78502319 389.23109436 191.77391052 C390.78969177 191.78009651 390.78969177 191.78009651 392.379776 191.78640747 C393.73619438 191.7822594 393.73619438 191.7822594 395.12001514 191.77802753 C397.93166875 192.23124471 398.64352672 192.96013182 400.41009521 195.14717102 C400.70941093 198.05404128 400.82325328 200.74766631 400.80450439 203.65620422 C400.8105955 204.53557616 400.8166866 205.4149481 400.82296228 206.32096767 C400.83966629 209.28009227 400.83480569 212.23878999 400.83001709 215.19795227 C400.8373539 217.31532745 400.84593899 219.43269862 400.85568237 221.55006409 C400.87796767 227.3154763 400.8808249 233.08074585 400.87893486 238.84619522 C400.87881528 243.66610453 400.88737571 248.48598348 400.89571238 253.30588436 C400.91497817 264.6937556 400.9178215 276.08155357 400.91107178 287.46943665 C400.90445506 299.18388002 400.92719234 310.89800659 400.96438551 322.61238575 C400.99519811 332.68571432 401.00642925 342.75894171 401.00254869 352.8323164 C401.0004901 358.84073593 401.00581968 364.84890993 401.03044128 370.85728455 C401.05289196 376.52418808 401.05067963 382.19058358 401.03051376 387.85749054 C401.02713392 389.92326511 401.03205998 391.98907505 401.04649734 394.05480194 C401.22594265 421.66548607 392.81813963 447.83614115 373.41009521 468.14717102 C354.07712293 486.28828114 331.88523695 491.93134767 306.0488739 491.77536011 C303.82645664 491.7804142 301.60404347 491.78764966 299.38163954 491.79685825 C293.31675263 491.81568419 287.25227219 491.80360122 281.18739593 491.78613532 C275.30516551 491.77409407 269.42301024 491.7856563 263.54078422 491.79640662 C250.77792558 491.81879232 238.0151999 491.81290919 225.25234124 491.79497052 C214.08364171 491.77937074 202.91498869 491.77355819 191.74627876 491.77731133 C191.00391476 491.77754813 190.26155077 491.77778493 189.49669089 491.7780289 C186.48280542 491.77900391 183.46891997 491.78002474 180.45503454 491.78111401 C152.21398892 491.79118477 123.97302493 491.77296665 95.73199852 491.74139365 C70.66853247 491.71353253 45.60516347 491.70857208 20.54168701 491.72358704 C14.12207768 491.72740981 7.70246834 491.7312047 1.28285885 491.73475742 C0.09718031 491.73541415 0.09718031 491.73541415 -1.11245133 491.73608413 C-22.08702225 491.74733569 -43.06158609 491.73996644 -64.03615469 491.72687668 C-66.29428568 491.72548818 -68.55241669 491.72410747 -70.8105477 491.72273826 C-72.30837932 491.72182888 -73.80621093 491.72090621 -75.30404254 491.71997015 C-86.46351366 491.71318806 -97.62295672 491.71582249 -108.78242683 491.72291756 C-121.47664243 491.7309005 -134.17076051 491.72425865 -146.86495478 491.69874252 C-153.33783377 491.68626913 -159.81055077 491.68007495 -166.28343582 491.69128418 C-172.21555427 491.70136277 -178.1473504 491.69278962 -184.0794298 491.669703 C-186.21848689 491.66456579 -188.35757313 491.66606535 -190.49661732 491.67509765 C-205.91167308 491.73474401 -220.38779867 490.72691227 -234.21490479 483.14717102 C-234.85556885 482.81717102 -235.49623291 482.48717102 -236.15631104 482.14717102 C-258.73354281 470.32759774 -271.0173341 450.05624381 -278.67974854 426.54951477 C-280.42324633 420.0319758 -280.73735729 413.72797825 -280.73034668 407.03167725 C-280.7333178 406.1356317 -280.73628892 405.23958615 -280.73935008 404.31638771 C-280.74799471 401.3256464 -280.7495417 398.33494531 -280.7510376 395.3441925 C-280.75566856 393.19528621 -280.7606936 391.04638073 -280.76608276 388.8974762 C-280.779177 383.06916164 -280.78564524 377.24085858 -280.79009342 371.41253161 C-280.79302735 367.77128683 -280.79713264 364.13004517 -280.8015976 360.48880196 C-280.81526113 349.09568784 -280.82493489 337.70258089 -280.82879949 326.30945915 C-280.83328556 313.15715617 -280.85086372 300.00495685 -280.87980008 286.85268539 C-280.90139753 276.68353036 -280.91150264 266.51440455 -280.9128406 256.34522682 C-280.91388949 250.27194452 -280.91981587 244.1987598 -280.93766022 238.12550163 C-280.9541086 232.41684224 -280.9563121 226.70835417 -280.94752121 220.99967957 C-280.94674926 218.90425216 -280.9511143 216.80881566 -280.96097946 214.71341133 C-280.97365315 211.85396273 -280.96784712 208.99512524 -280.95739746 206.13568115 C-280.96545387 205.30581536 -280.97351027 204.47594957 -280.98181081 203.62093633 C-280.97192604 202.46519679 -280.97192604 202.46519679 -280.96184158 201.28610897 C-280.96243867 200.62691178 -280.96303576 199.96771459 -280.96365094 199.28854173 C-280.58990479 197.14717102 -280.58990479 197.14717102 -277.58990479 191.14717102 C-236.99990479 191.47717102 -196.40990479 191.80717102 -154.58990479 192.14717102 C-153.92990479 189.17717102 -153.26990479 186.20717102 -152.58990479 183.14717102 C-150.60990479 177.86717102 -148.62990479 172.58717102 -146.58990479 167.14717102 C-212.42490479 166.65217102 -212.42490479 166.65217102 -279.58990479 166.14717102 C-279.58990479 117.1162386 -279.58990479 117.1162386 -271.83990479 101.33467102 C-271.49701416 100.62383362 -271.15412354 99.91299622 -270.80084229 99.18061829 C-267.79712937 93.16702607 -264.1688546 88.07904385 -259.58990479 83.14717102 C-258.99951416 82.45494446 -258.40912354 81.7627179 -257.80084229 81.04951477 C-249.3177179 71.68197955 -237.91351957 66.28963853 -225.58990479 64.14717102 C-224.66371338 63.97476395 -223.73752197 63.80235687 -222.78326416 63.62472534 C-219.7204668 63.16669606 -216.87085874 63.02666141 -213.77740479 63.03364563 C-212.07099319 63.03375137 -212.07099319 63.03375137 -210.33010864 63.03385925 C-209.09584137 63.03902557 -207.8615741 63.04419189 -206.58990479 63.04951477 C-204.57632383 63.0517567 -202.56274288 63.05399833 -200.54916191 63.05622864 C-198.38973993 63.05959373 -196.23033737 63.06544717 -194.07092285 63.07200623 C-189.54453767 63.08560388 -185.01816221 63.09144037 -180.49176025 63.09614563 C-170.04536025 63.10817075 -159.59898544 63.13007292 -149.15260315 63.15237427 C-139.61586386 63.17267297 -130.07913403 63.19074081 -120.54237747 63.20058918 C-116.79144081 63.20470395 -113.04053387 63.21090627 -109.28961182 63.22233582 C-92.69663828 63.27243114 -76.15950796 63.1214013 -59.58990479 62.14717102 C-59.28716644 61.36428711 -58.9844281 60.5814032 -58.67251587 59.77479553 C-57.61017551 57.19637046 -56.42823503 55.31717553 -54.75396729 53.10029602 C-54.19040527 52.34643616 -53.62684326 51.59257629 -53.04620361 50.81587219 C-52.441875 50.01770081 -51.83754639 49.21952942 -51.21490479 48.39717102 C-49.9386466 46.69127485 -48.66393531 44.9842204 -47.39068604 43.27607727 C-46.75082764 42.41772278 -46.11096924 41.55936829 -45.45172119 40.67500305 C-42.7015996 36.94109813 -40.05287778 33.13956639 -37.40240479 29.33467102 C-35.47509857 26.5981637 -33.53655183 23.86994963 -31.58990479 21.14717102 C-31.11955811 20.48749329 -30.64921143 19.82781555 -30.16461182 19.14814758 C-22.11329787 7.98136145 -14.50603177 0.06427365 0 0 Z " fill="#303237" transform="translate(451.58990478515625,240.8528289794922)"/>
<path d="M0 0 C1.09731445 0.20133545 1.09731445 0.20133545 2.21679688 0.40673828 C27.87599883 5.19794162 49.30073445 13.40788213 71 28 C72.06476563 28.71414063 73.12953125 29.42828125 74.2265625 30.1640625 C80.34597794 34.44941683 85.79960641 39.30706867 91.2265625 44.41796875 C93.45403297 46.49171239 95.71424293 48.44367837 98.0625 50.375 C103.70510242 55.29628005 108.33585639 61.17291753 113 67 C113.49048828 67.61020996 113.98097656 68.22041992 114.48632812 68.84912109 C122.78933921 79.27659883 129.714025 90.25358152 136 102 C136.37640625 102.69673828 136.7528125 103.39347656 137.140625 104.11132812 C145.95532942 120.70277358 151.13829947 139.47955785 154 158 C154.10151367 158.64437012 154.20302734 159.28874023 154.30761719 159.95263672 C161.49060421 207.36714882 150.6373423 256.48762444 122.5390625 295.4375 C117.30519225 302.52494644 111.53508317 309.11555637 105.44628906 315.47753906 C103.98358029 317.01728449 102.55088024 318.5816919 101.1171875 320.1484375 C75.69567886 347.33383698 38.22275331 363.66940307 2 370 C0.845 370.20496094 -0.31 370.40992188 -1.5 370.62109375 C-29.48928017 374.84864128 -58.94950965 371.99274121 -86 364 C-86.6703125 363.80680176 -87.340625 363.61360352 -88.03125 363.41455078 C-116.40574035 355.11243805 -141.69785817 338.20030691 -163 318 C-163.47147461 317.55575684 -163.94294922 317.11151367 -164.42871094 316.65380859 C-182.32366307 299.68445744 -194.68167664 279.75619392 -204 257 C-204.36399902 256.12037598 -204.72799805 255.24075195 -205.10302734 254.33447266 C-210.74349869 240.49333383 -214.11093697 226.81949524 -216 212 C-216.10094971 211.21947266 -216.20189941 210.43894531 -216.3059082 209.63476562 C-219.44442505 182.31981722 -216.91676017 154.17723693 -208.62792969 127.98779297 C-208.01295121 126.04099874 -207.43056567 124.08665448 -206.8515625 122.12890625 C-201.55808138 105.05831782 -192.51263163 86.73010421 -181 73 C-180.34 73 -179.68 73 -179 73 C-178.773125 72.278125 -178.54625 71.55625 -178.3125 70.8125 C-176.72389919 67.40835541 -174.69011368 65.63033337 -172 63 C-170.14245193 60.62602154 -168.33709621 58.22093121 -166.55078125 55.79296875 C-166.03902344 55.20128906 -165.52726562 54.60960937 -165 54 C-164.34 54 -163.68 54 -163 54 C-162.62294922 53.12214844 -162.62294922 53.12214844 -162.23828125 52.2265625 C-157.55686415 43.80887245 -146.70923471 37.66996168 -139 32 C-138.45698242 31.59523438 -137.91396484 31.19046875 -137.35449219 30.7734375 C-129.15770418 24.73421164 -120.47448882 20.05171572 -111.3125 15.625 C-110.27963867 15.12500488 -109.24677734 14.62500977 -108.18261719 14.10986328 C-102.12686074 11.25731876 -96.06624456 8.88225522 -89.68041992 6.87255859 C-87.90135873 6.29341981 -86.14109527 5.65281588 -84.40649414 4.95166016 C-59.47999042 -4.90565054 -25.79687516 -4.81650517 0 0 Z " fill="#2E3135" transform="translate(542,306)"/>
<path d="M0 0 C1.09731445 0.20133545 1.09731445 0.20133545 2.21679688 0.40673828 C27.87599883 5.19794162 49.30073445 13.40788213 71 28 C72.06476563 28.71414063 73.12953125 29.42828125 74.2265625 30.1640625 C80.34597794 34.44941683 85.79960641 39.30706867 91.2265625 44.41796875 C93.45403297 46.49171239 95.71424293 48.44367837 98.0625 50.375 C103.70510242 55.29628005 108.33585639 61.17291753 113 67 C113.49048828 67.61020996 113.98097656 68.22041992 114.48632812 68.84912109 C122.78933921 79.27659883 129.714025 90.25358152 136 102 C136.37640625 102.69673828 136.7528125 103.39347656 137.140625 104.11132812 C145.95532942 120.70277358 151.13829947 139.47955785 154 158 C154.10151367 158.64437012 154.20302734 159.28874023 154.30761719 159.95263672 C161.49060421 207.36714882 150.6373423 256.48762444 122.5390625 295.4375 C117.30519225 302.52494644 111.53508317 309.11555637 105.44628906 315.47753906 C103.98358029 317.01728449 102.55088024 318.5816919 101.1171875 320.1484375 C75.69567886 347.33383698 38.22275331 363.66940307 2 370 C0.845 370.20496094 -0.31 370.40992188 -1.5 370.62109375 C-29.48928017 374.84864128 -58.94950965 371.99274121 -86 364 C-86.6703125 363.80680176 -87.340625 363.61360352 -88.03125 363.41455078 C-116.40574035 355.11243805 -141.69785817 338.20030691 -163 318 C-163.47147461 317.55575684 -163.94294922 317.11151367 -164.42871094 316.65380859 C-182.32366307 299.68445744 -194.68167664 279.75619392 -204 257 C-204.36399902 256.12037598 -204.72799805 255.24075195 -205.10302734 254.33447266 C-210.74349869 240.49333383 -214.11093697 226.81949524 -216 212 C-216.10094971 211.21947266 -216.20189941 210.43894531 -216.3059082 209.63476562 C-219.44442505 182.31981722 -216.91676017 154.17723693 -208.62792969 127.98779297 C-208.01295121 126.04099874 -207.43056567 124.08665448 -206.8515625 122.12890625 C-201.55808138 105.05831782 -192.51263163 86.73010421 -181 73 C-180.34 73 -179.68 73 -179 73 C-178.773125 72.278125 -178.54625 71.55625 -178.3125 70.8125 C-176.72389919 67.40835541 -174.69011368 65.63033337 -172 63 C-170.14245193 60.62602154 -168.33709621 58.22093121 -166.55078125 55.79296875 C-166.03902344 55.20128906 -165.52726562 54.60960937 -165 54 C-164.34 54 -163.68 54 -163 54 C-162.62294922 53.12214844 -162.62294922 53.12214844 -162.23828125 52.2265625 C-157.55686415 43.80887245 -146.70923471 37.66996168 -139 32 C-138.45698242 31.59523438 -137.91396484 31.19046875 -137.35449219 30.7734375 C-129.15770418 24.73421164 -120.47448882 20.05171572 -111.3125 15.625 C-110.27963867 15.12500488 -109.24677734 14.62500977 -108.18261719 14.10986328 C-102.12686074 11.25731876 -96.06624456 8.88225522 -89.68041992 6.87255859 C-87.90135873 6.29341981 -86.14109527 5.65281588 -84.40649414 4.95166016 C-59.47999042 -4.90565054 -25.79687516 -4.81650517 0 0 Z M-139 72 C-139.80179688 72.73605469 -140.60359375 73.47210938 -141.4296875 74.23046875 C-163.95595364 95.71318582 -179.62477701 125.72619866 -186 156 C-186.19142578 156.86713623 -186.38285156 157.73427246 -186.58007812 158.62768555 C-188.4501189 168.17504228 -188.39922564 177.74668366 -188.375 187.4375 C-188.3737915 188.32772858 -188.37258301 189.21795715 -188.37133789 190.13516235 C-188.21545582 232.3958383 -171.47062862 268.97443529 -141.61279297 298.7578125 C-111.18789969 328.20707595 -69.60703865 344.87275872 -27.29296875 344.203125 C-25.52836302 344.14323865 -23.76403312 344.07487937 -22 344 C-20.93168945 343.96132813 -19.86337891 343.92265625 -18.76269531 343.8828125 C-9.97078444 343.42954503 -1.85394713 341.82355231 6.625 339.5 C7.27341858 339.32459686 7.92183716 339.14919373 8.58990479 338.96847534 C20.29332368 335.77958317 31.23982811 331.62059046 42 326 C42.72348633 325.6272998 43.44697266 325.25459961 44.19238281 324.87060547 C63.66713781 314.72805442 80.84130493 300.65071713 94 283 C94.39493652 282.48002441 94.78987305 281.96004883 95.19677734 281.42431641 C113.36573722 257.41862244 127.00814301 228.57643709 127.203125 197.9765625 C127.21009399 197.23699814 127.21706299 196.49743378 127.22424316 195.73545837 C127.24152594 193.36524698 127.24796124 190.99527175 127.25 188.625 C127.25100708 187.81731171 127.25201416 187.00962341 127.25305176 186.17745972 C127.23902853 169.5873624 125.52985041 154.76899277 120 139 C119.76829102 138.30326172 119.53658203 137.60652344 119.29785156 136.88867188 C108.4950855 104.43866416 87.65329998 76.10663506 60 56 C59.42894531 55.57928223 58.85789062 55.15856445 58.26953125 54.72509766 C-3.31543883 9.79920797 -85.229016 21.85307919 -139 72 Z " fill="#F1F2F1" transform="translate(542,306)"/>
<path d="M0 0 C1.02222656 0.71929687 2.04445313 1.43859375 3.09765625 2.1796875 C29.3531081 21.21912484 50.56824793 48.11900108 61 79 C61.42925781 80.20140625 61.85851562 81.4028125 62.30078125 82.640625 C67.04823239 96.11523879 70.1156982 109.77647242 70.203125 124.09375 C70.20882507 124.84354126 70.21452515 125.59333252 70.22039795 126.36584473 C70.22978285 127.94570536 70.23635577 129.525585 70.24023438 131.10546875 C70.24986344 133.466515 70.28091686 135.82665999 70.3125 138.1875 C70.38419596 148.46732842 69.3063668 157.98671444 67 168 C66.81179688 168.83144531 66.62359375 169.66289063 66.4296875 170.51953125 C60.98732594 192.92675422 49.76118827 213.43000263 35 231 C33.66484212 232.70690773 32.33152641 234.41525792 31 236.125 C10.92852102 261.10717093 -18.49948187 276.69156639 -49 285 C-49.70737305 285.20206055 -50.41474609 285.40412109 -51.14355469 285.61230469 C-60.40634837 288.25450689 -69.3379936 289.75551603 -79 290 C-79.75345703 290.03109863 -80.50691406 290.06219727 -81.28320312 290.09423828 C-123.53317557 291.76908779 -164.14914745 275.86426378 -195.1875 247.5 C-197.13913947 245.68079888 -199.06998531 243.84240742 -201 242 C-201.86496094 241.18789063 -202.72992188 240.37578125 -203.62109375 239.5390625 C-218.84094939 224.86531712 -228.1194182 207.71259569 -236.05761719 188.29638672 C-236.79330539 186.50367085 -237.55231657 184.72052108 -238.3203125 182.94140625 C-239.38605521 180.31900786 -240.22451995 177.72319739 -241 175 C-241.26852783 174.08661865 -241.26852783 174.08661865 -241.54248047 173.15478516 C-248.28497995 149.00127434 -248.06993494 118.03183766 -241 94 C-240.66631684 92.69215638 -240.33555745 91.3835631 -240.0078125 90.07421875 C-233.0370974 63.86918943 -217.43068536 40.51672228 -199 21 C-198.26652344 20.20207031 -197.53304687 19.40414062 -196.77734375 18.58203125 C-185.60059923 6.84551655 -172.08854744 -2.13776036 -158 -10 C-157.05382812 -10.54140625 -156.10765625 -11.0828125 -155.1328125 -11.640625 C-107.54049984 -37.25688394 -43.54919293 -31.20753651 0 0 Z M-178 43 C-178.78890625 43.74894531 -179.5778125 44.49789062 -180.390625 45.26953125 C-184.17051419 48.93042393 -187.2378941 52.48856037 -190 57 C-190.42539062 57.59683594 -190.85078125 58.19367188 -191.2890625 58.80859375 C-196.41627932 66.06072663 -200.20530567 73.99638499 -204 82 C-204.34232666 82.6906958 -204.68465332 83.3813916 -205.03735352 84.09301758 C-207.90861212 90.1201592 -209.37221235 96.1618124 -210.6875 102.6875 C-210.89955078 103.69361328 -211.11160156 104.69972656 -211.33007812 105.73632812 C-211.9049925 108.48757451 -212.45594017 111.24251885 -213 114 C-213.20753906 114.99128906 -213.41507812 115.98257813 -213.62890625 117.00390625 C-217.47767145 148.07762107 -209.90133428 180.37241441 -190.75 205.1875 C-168.83613703 232.44226584 -137.99409557 251.58839573 -103 256 C-64.4832518 257.8837387 -28.98615862 248.77422956 0.1875 222.75 C21.23355097 203.26639561 36.95495259 173.93964531 38.12036133 145.01245117 C38.46507698 131.03367228 38.54913397 117.59547288 35 104 C34.65538649 102.53405689 34.3116788 101.06790063 33.96875 99.6015625 C31.36035105 88.94662736 27.38776689 79.5356922 22 70 C21.5064502 69.12021484 21.5064502 69.12021484 21.00292969 68.22265625 C7.0304743 43.64896602 -12.95388719 27.235642 -38 15 C-38.96292969 14.51660156 -39.92585937 14.03320312 -40.91796875 13.53515625 C-86.95811742 -6.90642123 -143.28680102 9.41448969 -178 43 Z " fill="#313338" transform="translate(599,360)"/>
<path d="M0 0 C0.64888184 0.3304834 1.29776367 0.6609668 1.96630859 1.00146484 C29.98888097 15.5233717 52.14004225 40.58904082 62.875 70.37109375 C70.38674327 94.60168229 73.91049886 121.1588507 67 146 C66.70996094 147.0530835 66.70996094 147.0530835 66.4140625 148.12744141 C61.55273345 165.30338717 53.60541405 180.44773569 42 194 C41.53722656 194.54640137 41.07445312 195.09280273 40.59765625 195.65576172 C24.21156669 214.80062042 4.07306683 225.53663748 -19.6875 233.25 C-20.43459229 233.4962915 -21.18168457 233.74258301 -21.95141602 233.99633789 C-33.11838964 237.50762155 -44.08624141 238.36440154 -55.75 238.3125 C-56.41019135 238.31034485 -57.07038269 238.3081897 -57.75057983 238.30596924 C-93.60447867 238.1183405 -125.40507372 222.10719476 -150.51074219 196.85546875 C-173.71864624 172.69876654 -183.00980292 141.56945289 -182.38671875 108.46875 C-181.64774023 90.96803122 -177.12746292 73.50733662 -169.125 57.9375 C-168.77985352 57.25776123 -168.43470703 56.57802246 -168.07910156 55.87768555 C-164.31162786 48.53529404 -160.43504007 41.25853099 -155 35 C-154.52175781 34.43152344 -154.04351562 33.86304688 -153.55078125 33.27734375 C-145.03554731 23.29328158 -136.06006485 15.07314327 -125 8 C-123.61748047 7.09121094 -123.61748047 7.09121094 -122.20703125 6.1640625 C-86.46700953 -16.11674088 -37.59306358 -19.3812731 0 0 Z M-118 39 C-118.75772705 39.63228516 -118.75772705 39.63228516 -119.53076172 40.27734375 C-137.23217407 55.22347832 -148.48949917 75.27728826 -153 98 C-153.18820312 98.89203125 -153.37640625 99.7840625 -153.5703125 100.703125 C-157.03687673 127.30112691 -150.64713565 151.35904662 -135 173 C-131.61943025 177.28775757 -127.87979117 181.16499719 -124 185 C-123.19949219 185.81082031 -122.39898437 186.62164063 -121.57421875 187.45703125 C-103.07163561 205.23283534 -77.77014276 212.50078784 -52.69140625 212.21484375 C-28.00006398 211.55394498 -3.79599628 201.56503605 13.3515625 183.7734375 C13.89554688 183.18820312 14.43953125 182.60296875 15 182 C15.58523438 181.37351562 16.17046875 180.74703125 16.7734375 180.1015625 C33.65336152 161.45256347 42.37492882 138.14654403 42.3125 113.1875 C42.32861328 111.91068359 42.34472656 110.63386719 42.36132812 109.31835938 C42.36737696 97.43240332 40.31573959 86.73103344 35.3125 75.9375 C34.96292236 75.1729248 34.61334473 74.40834961 34.25317383 73.62060547 C28.67117221 61.73085443 21.02042608 52.3757762 12 43 C11.41734375 42.34257812 10.8346875 41.68515625 10.234375 41.0078125 C-3.48529771 25.97160554 -27.41077595 16.52191187 -47.36328125 15.59375 C-74.24982399 14.99233035 -97.20953432 21.57560971 -118 39 Z " fill="#F2F3F2" transform="translate(567,378)"/>
<path d="M0 0 C5.88383161 0.00563123 11.76761734 0.00234433 17.6514473 -0.00343037 C58.53647151 -0.03762377 99.40681923 0.36753942 140.24804688 2.37768555 C143.56331202 2.54003101 146.87875788 2.69429256 150.19457245 2.84470558 C200.57599339 5.14329795 200.57599339 5.14329795 207.00683594 11.88037109 C208.59625323 15.63717561 208.91525706 18.09161113 208.38183594 22.13037109 C204.58082551 26.99377575 198.03811309 27.66952197 192.22999573 28.40159607 C189.72878316 28.65585567 187.22667035 28.88130642 184.72167969 29.09521484 C183.76645416 29.17896362 182.81122864 29.2627124 181.82705688 29.34899902 C169.31438277 30.42342271 156.78827738 31.30740839 144.25683594 32.13037109 C143.27482334 32.19489723 143.27482334 32.19489723 142.27297211 32.26072693 C100.2895288 35.00639333 58.20485798 36.2915968 16.13183594 36.31787109 C15.23531311 36.31895874 14.33879028 36.32004639 13.4151001 36.32116699 C-17.76277355 36.31680045 -48.90656511 34.67356965 -80.03466797 33.08349609 C-84.3365456 32.86396108 -88.63860808 32.64888103 -92.94091797 32.43798828 C-113.64424084 31.42231017 -134.34352668 30.39102258 -155.00097656 28.65380859 C-155.68458126 28.59930164 -156.36818596 28.54479469 -157.07250595 28.48863602 C-177.21789562 26.85636301 -177.21789562 26.85636301 -182.38919067 22.71054077 C-183.61816406 21.13037109 -183.61816406 21.13037109 -184.05566406 18.25537109 C-183.48142192 14.15364149 -182.74344019 12.89224302 -179.61816406 10.13037109 C-167.62893421 4.13575617 -154.04064641 3.86272619 -140.9130249 3.66650391 C-136.75308603 3.6027418 -132.59387947 3.50731788 -128.43457031 3.41162109 C-127.56058594 3.39180176 -126.68660156 3.37198242 -125.78613281 3.3515625 C-113.78187005 3.06143585 -101.79055945 2.46075085 -89.79760742 1.87841797 C-85.34740976 1.66264471 -80.89678935 1.45798376 -76.44580078 1.25921631 C-74.56607303 1.17356389 -72.68650757 1.08426971 -70.80712891 0.99127197 C-47.21715001 -0.16111776 -23.61177481 -0.02277032 0 0 Z " fill="#A4A5A7" transform="translate(501.6181640625,755.86962890625)"/>
<path d="M0 0 C16.89808058 -0.02334543 33.79615614 -0.04098727 50.69424915 -0.05181217 C58.54006807 -0.05697163 66.38587697 -0.06400768 74.23168945 -0.07543945 C81.06894315 -0.08539697 87.9061896 -0.09185598 94.74345034 -0.09408849 C98.36475598 -0.09539378 101.98604087 -0.09846818 105.60733986 -0.10573006 C109.64684602 -0.1137651 113.68631596 -0.11399045 117.72583008 -0.11352539 C119.53304535 -0.1189183 119.53304535 -0.1189183 121.37677002 -0.12442017 C123.02371605 -0.12235817 123.02371605 -0.12235817 124.70393372 -0.12025452 C125.65983304 -0.12117631 126.61573236 -0.1220981 127.60059834 -0.12304783 C130 0 130 0 133 1 C131.5615741 9.6305554 128.0247847 17.78987009 125 26 C84.08 26 43.16 26 1 26 C-4.625 13.625 -4.625 13.625 -4 6 C-3.34 6 -2.68 6 -2 6 C-1.7834375 5.071875 -1.7834375 5.071875 -1.5625 4.125 C-1 2 -1 2 0 0 Z " fill="#F3F4F3" transform="translate(172,407)"/>
<path d="M0 0 C7.2023067 6.10090448 14.04183699 14.50250047 15.62890625 24.1171875 C15.80386089 33.19733339 12.91347946 42.27167466 7.1328125 49.33203125 C-0.37721088 56.47532313 -8.86137744 59.48988502 -19.0456543 59.37084961 C-28.67619702 59.10936038 -33.47662138 56.08170542 -40.4375 49.484375 C-47.89872959 41.58651579 -50.28934607 33.30564284 -50.078125 22.49609375 C-49.12212659 13.70090836 -45.34296256 6.61919249 -38.82421875 0.703125 C-27.20322096 -8.19487146 -12.01125623 -8.5101397 0 0 Z " fill="#F2F5F5" transform="translate(763.70703125,580.91796875)"/>
<path d="M0 0 C1.89952927 0.00280975 1.89952927 0.00280975 3.83743286 0.00567627 C6.5258783 0.01239826 9.21356637 0.02464631 11.90185547 0.046875 C15.93072559 0.08009639 19.95927576 0.08780532 23.98828125 0.09375 C31.70423147 0.11541566 39.41785129 0.20630848 47.1328125 0.328125 C48.31750122 0.34351318 49.50218994 0.35890137 50.72277832 0.37475586 C54.02969212 0.42536415 57.33456515 0.50412006 60.640625 0.59375 C61.60668671 0.60686218 62.57274841 0.61997437 63.56808472 0.63348389 C70.48362558 0.87214574 74.87163283 2.36577853 80.09375 7.109375 C80.79371094 7.96015625 80.79371094 7.96015625 81.5078125 8.828125 C81.98992187 9.3953125 82.47203125 9.9625 82.96875 10.546875 C86.33353582 15.69567478 85.1328125 21.23467157 85.1328125 27.328125 C48.5028125 27.328125 11.8728125 27.328125 -25.8671875 27.328125 C-28.14956352 22.76337296 -27.07426218 17.35223888 -25.6796875 12.640625 C-23.80250949 7.54417443 -20.96607834 4.75975846 -16.50341797 1.71582031 C-11.03712942 -0.37028041 -5.80083901 -0.05937954 0 0 Z " fill="#292E33" transform="translate(710.8671875,258.671875)"/>
<path d="M0 0 C0.78796463 -0.00700928 1.57592926 -0.01401855 2.38777161 -0.02124023 C4.97380578 -0.0387413 7.55873148 -0.02722504 10.14477539 -0.01367188 C11.95406808 -0.01636934 13.76335935 -0.02025388 15.57264709 -0.02526855 C19.3578171 -0.03115314 23.14260852 -0.02263533 26.92773438 -0.00390625 C31.76417963 0.01886641 36.59973606 0.00576446 41.43614864 -0.01819611 C45.17068598 -0.03269628 48.90501495 -0.02802854 52.63955879 -0.01768494 C54.4220344 -0.01502844 56.20452931 -0.01824926 57.98698235 -0.02760315 C60.48531583 -0.0378369 62.98223946 -0.02217349 65.48046875 0 C66.57097031 -0.01214539 66.57097031 -0.01214539 67.6835022 -0.02453613 C74.12123731 0.08057204 79.30949403 2.24899848 84.08227539 6.58789062 C84.63012695 7.2659375 85.17797852 7.94398438 85.74243164 8.64257812 C86.30833008 9.32578125 86.87422852 10.00898438 87.45727539 10.71289062 C91.764413 16.48070969 89.80493164 17.53555592 89.80493164 27.51757812 C53.83493164 27.18757813 17.86493164 26.85757812 -19.19506836 26.51757812 C-20.58652175 20.95176457 -21.55687988 14.85187897 -19.32397461 9.38476562 C-14.65406033 2.31099383 -8.23396423 -0.09145058 0 0 Z " fill="#2B2E33" transform="translate(246.195068359375,259.482421875)"/>
<path d="M0 0 C1.13288956 -0.00287018 2.26577911 -0.00574036 3.43299866 -0.00869751 C5.82602438 -0.01073668 8.21906682 -0.00521717 10.61206055 0.00732422 C14.26844724 0.0233642 17.923726 0.00747728 21.58007812 -0.01171875 C23.90755452 -0.009736 26.23503022 -0.00589167 28.5625 0 C29.65328354 -0.00607269 30.74406708 -0.01214539 31.86790466 -0.0184021 C39.21335348 0.04939971 43.70077118 0.92417537 49.22265625 6.0859375 C52.02775689 10.45859438 51.99738292 12.28183997 51.34765625 17.3984375 C49.53170897 21.73653378 46.48649315 25.14202417 42.34765625 27.3984375 C38.43872832 28.1847637 34.5762416 28.2145782 30.59765625 28.24609375 C29.46618164 28.27070175 28.33470703 28.29530975 27.16894531 28.32066345 C24.7820996 28.36651764 22.39499381 28.40023564 20.0078125 28.42260742 C16.35922537 28.46081635 12.71399705 28.54694107 9.06640625 28.63867188 C6.74353561 28.67734967 4.42061671 28.71325034 2.09765625 28.74609375 C1.01000977 28.7729274 -0.07763672 28.79976105 -1.19824219 28.82740784 C-9.02832156 28.8594901 -12.28044203 27.58807427 -17.96484375 22.2109375 C-20.29652771 18.32479757 -20.9773546 14.91763595 -20.65234375 10.3984375 C-19.48174045 6.81776857 -17.59283674 4.21660063 -14.73217773 1.72802734 C-9.91731318 -0.35058957 -5.18878874 -0.02883391 0 0 Z " fill="#F3F5F5" transform="translate(730.65234375,345.6015625)"/>
<path d="M0 0 C3.80880012 2.33721825 6.22694656 4.89398152 8 9 C8.6987709 15.28893806 8.01227859 17.88736407 4 23 C1.23046875 24.94921875 1.23046875 24.94921875 -1.8125 26.6875 C-7.42194457 30.23102718 -10.40224375 33.81727943 -13.59765625 39.58203125 C-14.91470068 41.85292402 -15.91249178 43.42151472 -18 45 C-23.56688606 46.08156644 -28.20860049 44.99462469 -33 42 C-34 41 -34 41 -34.375 37.1875 C-34.20572647 26.50634013 -27.84944684 16.79293057 -21 9 C-14.73369177 3.18352691 -8.87067265 -0.95042921 0 0 Z " fill="#F4F6F8" transform="translate(477,433)"/>
<path d="M0 0 C5.06381628 2.282945 8.27590342 5.22758808 10.79296875 10.26171875 C12.0087457 24.7815692 12.0087457 24.7815692 8.79296875 29.01171875 C3.23890437 33.17726704 -2.18694444 35.1392296 -9.20703125 34.26171875 C-14.92581305 32.48923082 -18.72777779 29.41248829 -22.06640625 24.46875 C-23.99974598 20.72787005 -24.75060775 17.45607259 -24.20703125 13.26171875 C-20.36706816 2.86340286 -10.81720509 -3.61849869 0 0 Z " fill="#F1F2F3" transform="translate(275.20703125,342.73828125)"/>
<path d="M0 0 C4.59182247 2.08417259 8.14171255 4.15746768 10 9 C10.63377934 15.4434233 9.73194389 18.71307949 6 24 C2.75771627 26.94753066 0.07735951 27.89836231 -4.3125 28.3125 C-9.59592627 27.86475201 -12.41484093 25.79651361 -15.875 21.875 C-17.57664991 17.52633911 -17.89442243 13.59375359 -17 9 C-13.13065409 2.16290335 -7.86622851 -0.91772666 0 0 Z " fill="#282E36" transform="translate(750,594)"/>
<path d="M0 0 C3.84603891 3.39882508 6.34626359 6.284927 7.1875 11.4375 C6.40077372 16.05951691 4.02084694 18.27022682 0.5 21.1875 C-3.50394789 22.87805578 -7.03016158 23.06228888 -11.3125 22.375 C-15.29944853 20.30769335 -17.93621759 18.16493483 -20.3125 14.375 C-21.14348887 10.58184671 -21.17594582 7.16519075 -20.3125 3.375 C-15.24490903 -2.89916024 -6.81890909 -3.34512521 0 0 Z " fill="#F4F7F9" transform="translate(457.3125,489.625)"/>
<path d="M0 0 C2.88258287 1.82367488 4.48467791 2.96935582 6 6 C6.54318527 9.43194329 6.65980447 12.58053715 6 16 C3.56750583 19.19026068 0.56074067 21.21962967 -3 23 C-8.03900609 23.12688145 -12.57344162 22.85274523 -16.5625 19.5625 C-19.45538246 16.52126459 -19.93565981 15.85250748 -20.25 11.6875 C-19.97677117 7.6573747 -19.57336576 6.07143655 -17 3 C-11.39809566 -1.34433398 -6.85082839 -1.84311627 0 0 Z " fill="#F3F5F7" transform="translate(522,422)"/>
<path d="M0 0 C1.8871875 0.0309375 1.8871875 0.0309375 3.8125 0.0625 C3.8125 0.7225 3.8125 1.3825 3.8125 2.0625 C4.4725 2.0625 5.1325 2.0625 5.8125 2.0625 C5.56236131 6.3148578 5.24363402 8.53814781 2.5 11.875 C-2.80977754 16.19691195 -2.80977754 16.19691195 -6.75 15.8125 C-9.1875 15.0625 -9.1875 15.0625 -12.1875 13.0625 C-12.58506542 9.98136797 -12.82442166 8.01337558 -12.1875 5.0625 C-8.54732995 1.225564 -5.21124671 -0.08543027 0 0 Z " fill="#8C969D" transform="translate(496.1875,472.9375)"/>
<path d="M0 0 C2.97 0.33 5.94 0.66 9 1 C9 1.66 9 2.32 9 3 C5.98968256 3.93423645 5.13349732 4.04449911 2 3 C-0.7972908 5.06756277 -1.02692273 6.14440371 -1.6875 9.6875 C-1.790625 10.780625 -1.89375 11.87375 -2 13 C-1.34 13 -0.68 13 0 13 C-0.33 13.99 -0.66 14.98 -1 16 C-1.99 16.33 -2.98 16.66 -4 17 C-4.38218767 15.34385343 -4.71395102 13.67542976 -5 12 C-4.67 11.67 -4.34 11.34 -4 11 C-3.63239269 8.67182036 -3.29758419 6.3381615 -3 4 C-2.34 4 -1.68 4 -1 4 C-0.67 2.68 -0.34 1.36 0 0 Z " fill="#171F28" transform="translate(441,476)"/>
<path d="M0 0 C0 0.66 0 1.32 0 2 C0.66 2.33 1.32 2.66 2 3 C1.20335937 3.12117188 0.40671875 3.24234375 -0.4140625 3.3671875 C-8.34501378 4.61883475 -8.34501378 4.61883475 -16 7 C-14.97386916 4.02422056 -14.03368909 3.02245939 -11.375 1.25 C-7.25131983 -0.27728895 -4.36676486 -0.22586715 0 0 Z " fill="#626D74" transform="translate(500,473)"/>
<path d="M0 0 C4.45520077 3.861174 5.39323048 7.61959649 6.8125 13.1875 C6.874375 14.115625 6.93625 15.04375 7 16 C5.51171875 17.67578125 5.51171875 17.67578125 4 19 C3.938125 17.0509375 3.938125 17.0509375 3.875 15.0625 C3.28205983 9.31554145 0.46316151 5.47986947 -3 1 C-2.01 0.67 -1.02 0.34 0 0 Z " fill="#181B22" transform="translate(481,432)"/>
<path d="M0 0 C1.32 0.33 2.64 0.66 4 1 C2.7934375 2.2684375 2.7934375 2.2684375 1.5625 3.5625 C-1.22146664 6.90641461 -1.84032589 9.60896192 -2 14 C-1.64025105 16.81237541 -1.64025105 16.81237541 -1 19 C-3.04795423 17.0373772 -3.94976638 15.5722693 -4.19921875 12.73046875 C-4.18858877 10.48045617 -4.12958525 8.24614438 -4 6 C-3.34 6 -2.68 6 -2 6 C-1.7834375 5.071875 -1.7834375 5.071875 -1.5625 4.125 C-1 2 -1 2 0 0 Z " fill="#DFE1E1" transform="translate(172,407)"/>
<path d="M0 0 C0.99 0.33 1.98 0.66 3 1 C2.195625 1.86625 1.39125 2.7325 0.5625 3.625 C-3.38883741 9.01623155 -2.90176147 15.5609107 -3 22 C-3.33 22 -3.66 22 -4 22 C-4.738041 6.07061503 -4.738041 6.07061503 0 0 Z " fill="#DCE0E3" transform="translate(229,263)"/>
<path d="M0 0 C0.66 0.33 1.32 0.66 2 1 C1.113125 1.70125 0.22625 2.4025 -0.6875 3.125 C-3.90375955 5.79121041 -6.41236896 8.72740781 -9 12 C-9.33 11.34 -9.66 10.68 -10 10 C-8.75 7.4375 -8.75 7.4375 -7 5 C-6.01 4.67 -5.02 4.34 -4 4 C-4 3.34 -4 2.68 -4 2 C-2.125 0.9375 -2.125 0.9375 0 0 Z " fill="#D6DADA" transform="translate(434,244)"/>
<path d="M0 0 C0.33 0.99 0.66 1.98 1 3 C-2.49087093 7.0042343 -4.64951939 8.62671065 -10 9 C-8.1875 7 -8.1875 7 -6 5 C-5.01 5 -4.02 5 -3 5 C-2.690625 4.360625 -2.38125 3.72125 -2.0625 3.0625 C-1 1 -1 1 0 0 Z " fill="#A3A6A9" transform="translate(500,479)"/>
<path d="M0 0 C2 4 2 4 1.3125 7.625 C0 11 0 11 -3 13 C-2.01 8.71 -1.02 4.42 0 0 Z " fill="#44484D" transform="translate(693,536)"/>
<path d="M0 0 C0.66 0 1.32 0 2 0 C0.40956621 5.08938811 -2.7446951 8.87456643 -6 13 C-6 9.30581799 -4.71820705 7.22163822 -3 4 C-2.34 4 -1.68 4 -1 4 C-0.67 2.68 -0.34 1.36 0 0 Z " fill="#D8DADB" transform="translate(398,289)"/>
<path d="M0 0 C-1.5885342 4.28904235 -4.43127368 6.32345526 -8 9 C-8.66 9 -9.32 9 -10 9 C-8.91720359 5.75161077 -8.10963155 4.95717417 -5.5625 2.8125 C-4.94503906 2.28269531 -4.32757812 1.75289063 -3.69140625 1.20703125 C-2 0 -2 0 0 0 Z " fill="#212327" transform="translate(530,437)"/>
<path d="M0 0 C2.39763185 2.39763185 2.34280586 3.33273498 2.625 6.625 C2.69976563 7.44226563 2.77453125 8.25953125 2.8515625 9.1015625 C2.90054688 9.72804688 2.94953125 10.35453125 3 11 C2.34 11 1.68 11 1 11 C-1.42857143 3.57142857 -1.42857143 3.57142857 0 0 Z " fill="#202628" transform="translate(715,408)"/>
<path d="M0 0 C1.08644535 4.3457814 0.90680911 4.94960548 -0.9375 8.75 C-1.50791016 9.94882812 -1.50791016 9.94882812 -2.08984375 11.171875 C-2.39019531 11.77515625 -2.69054687 12.3784375 -3 13 C-3.66 12.67 -4.32 12.34 -5 12 C-3.35 8.04 -1.7 4.08 0 0 Z " fill="#3F4244" transform="translate(684,564)"/>
<path d="M0 0 C0.66 0 1.32 0 2 0 C2 2.97 2 5.94 2 9 C1.01 8.67 0.02 8.34 -1 8 C-0.67 5.36 -0.34 2.72 0 0 Z " fill="#DBDDDD" transform="translate(777,603)"/>
<path d="M0 0 C0.66 0.33 1.32 0.66 2 1 C0.90716423 2.03295436 -0.19970579 3.05107835 -1.3125 4.0625 C-1.92738281 4.63097656 -2.54226562 5.19945312 -3.17578125 5.78515625 C-3.77777344 6.18605469 -4.37976563 6.58695312 -5 7 C-5.99 6.67 -6.98 6.34 -8 6 C-5.36 4.02 -2.72 2.04 0 0 Z " fill="#393D3F" transform="translate(206,312)"/>
<path d="M0 0 C-0.8125 1.9375 -0.8125 1.9375 -2 4 C-2.99 4.33 -3.98 4.66 -5 5 C-5.66 4.67 -6.32 4.34 -7 4 C-7 3.34 -7 2.68 -7 2 C-2.25 0 -2.25 0 0 0 Z " fill="#3C4243" transform="translate(590,662)"/>
<path d="M0 0 C2 3 2 3 2 5 C2.66 5 3.32 5 4 5 C4 6.65 4 8.3 4 10 C2 8.375 2 8.375 0 6 C-0.25 2.75 -0.25 2.75 0 0 Z " fill="#242527" transform="translate(460,487)"/>
<path d="M0 0 C1.33897583 0.95043374 2.67105427 1.91059147 4 2.875 C5.11375 3.67550781 5.11375 3.67550781 6.25 4.4921875 C6.8275 4.98976563 7.405 5.48734375 8 6 C8 6.66 8 7.32 8 8 C4.63820226 6.55922954 2.40843732 4.75249979 0 2 C0 1.34 0 0.68 0 0 Z " fill="#1F2325" transform="translate(712,367)"/>
<path d="M0 0 C0.66 0.33 1.32 0.66 2 1 C-1.465 3.97 -1.465 3.97 -5 7 C-5 6.01 -5 5.02 -5 4 C-2.5 1.8125 -2.5 1.8125 0 0 Z " fill="#1F2227" transform="translate(741,595)"/>
<path d="M0 0 C0.66 0.33 1.32 0.66 2 1 C-0.475 5.455 -0.475 5.455 -3 10 C-4 6 -4 6 -2.0625 2.75 C-1.381875 1.8425 -0.70125 0.935 0 0 Z " fill="#D3D5D8" transform="translate(688,263)"/>
<path d="M0 0 C-0.33 1.32 -0.66 2.64 -1 4 C-2.65 4.33 -4.3 4.66 -6 5 C-3.74193548 0 -3.74193548 0 0 0 Z " fill="#1A1E21" transform="translate(483,455)"/>
<path d="M0 0 C-1.24546405 3.73639216 -2.63404953 4.18756513 -6 6 C-6 5.01 -6 4.02 -6 3 C-2.66666667 0 -2.66666667 0 0 0 Z " fill="#EAECEB" transform="translate(423,360)"/>
</svg>
